<?xml version="1.0" encoding="iso-8859-1"?>
<!-- Uploaded to: SVG Repo, www.svgrepo.com, Generator: SVG Repo Mixer Tools -->
<svg height="800px" width="800px" version="1.1" id="Layer_1" xmlns="http://www.w3.org/2000/svg" xmlns:xlink="http://www.w3.org/1999/xlink" 
	 viewBox="0 0 512 512" xml:space="preserve">
<path style="fill:#94C783;" d="M276.148,136.829c-0.913-11.4-3.358-64.332,26.982-94.658c34.14-34.14,96.867-26.761,96.867-26.761
	s7.379,62.727-26.761,96.867c-34.125,34.14-96.867,26.761-96.867,26.761S276.281,138.258,276.148,136.829z"/>
<path style="fill:#FB7B76;" d="M295.751,219.572c66.468,0,120.344,62.167,120.344,138.857c0,76.675-53.876,138.842-120.344,138.842
	c-13.933,0-27.306-2.739-39.751-7.762c-12.445,5.022-25.833,7.762-39.766,7.762c-66.453,0-120.329-62.167-120.329-138.842
	c0-76.689,53.876-138.857,120.329-138.857c13.933,0,27.321,2.739,39.766,7.776C268.445,222.311,281.819,219.572,295.751,219.572z"/>
<path d="M81.177,358.428C81.177,443.108,141.764,512,216.234,512c13.569,0,26.919-2.271,39.766-6.759
	c12.846,4.488,26.191,6.759,39.751,6.759c74.479,0,135.072-68.891,135.072-153.572c0-84.687-60.593-153.585-135.072-153.585
	c-9.068,0-18.03,1.038-26.813,3.053c-1.47-9.631-4.146-22.22-9.017-36.38l19.188-17.459c2.848,0.196,6.908,0.39,11.866,0.39
	c23.011,0,65.112-4.184,92.675-31.758l-0.001,0.003c38.741-38.741,31.309-106.15,30.973-109.001
	c-0.797-6.772-6.136-12.111-12.906-12.908c-2.851-0.336-70.261-7.769-109,30.97c-30.126,30.112-32.434,77.061-31.665,98.91
	l-13.397,12.189c-7.685-14.847-17.926-30.316-31.583-45.212c-5.498-5.996-14.815-6.401-20.809-0.903
	c-5.996,5.497-6.399,14.815-0.903,20.809c29.452,32.124,40.415,67.749,44.495,89.468c-7.436-1.427-14.99-2.171-22.622-2.171
	C141.763,204.843,81.177,273.742,81.177,358.428z M313.544,52.587c20.086-20.088,53.528-23.105,71.816-23.105
	c0.219,0,0.437,0,0.654,0.001c0.056,20.297-4.064,53.251-23.194,72.381c0,0.001-0.001,0.001-0.001,0.003
	c-13.551,13.557-33.191,19.334-50.152,21.659l17.4-15.831c6.016-5.474,6.458-14.789,0.984-20.805
	c-5.473-6.018-14.789-6.46-20.805-0.985l-18.378,16.721C294.203,85.708,299.99,66.134,313.544,52.587z M401.367,358.428
	c0,68.437-47.379,124.115-105.615,124.115c-11.716,0-23.237-2.25-34.24-6.692c-1.767-0.713-3.639-1.071-5.511-1.071
	c-1.872,0-3.744,0.356-5.511,1.071c-11.003,4.442-22.528,6.692-34.255,6.692c-58.229,0-105.601-55.678-105.601-124.115
	c0-68.446,47.373-124.129,105.601-124.129c11.734,0,23.254,2.255,34.241,6.701c0.112,0.046,0.228,0.077,0.34,0.119
	c0.314,0.118,0.626,0.236,0.948,0.331c0.161,0.049,0.324,0.082,0.486,0.125c0.295,0.078,0.589,0.158,0.891,0.218
	c0.24,0.047,0.482,0.075,0.723,0.11c0.228,0.034,0.454,0.077,0.685,0.099c0.966,0.096,1.938,0.096,2.904,0
	c0.228-0.022,0.451-0.065,0.676-0.097c0.244-0.035,0.49-0.063,0.733-0.112c0.3-0.059,0.592-0.14,0.887-0.217
	c0.163-0.043,0.328-0.077,0.49-0.127c0.323-0.097,0.635-0.214,0.948-0.331c0.113-0.043,0.228-0.074,0.34-0.119
	c10.987-4.446,22.502-6.701,34.227-6.701C353.988,234.3,401.367,289.982,401.367,358.428z"/>
<path d="M295.751,434.854c24.256,0,46.806-21.4,54.837-52.042c2.062-7.868-2.644-15.92-10.513-17.98
	c-7.871-2.072-15.92,2.645-17.982,10.513c-4.866,18.563-17.462,30.053-26.343,30.053c-8.134,0-14.728,6.595-14.728,14.728
	C281.023,428.259,287.617,434.854,295.751,434.854z"/>
<path d="M341.247,349.313c8.134,0,14.728-6.595,14.728-14.728V327c0-8.133-6.594-14.728-14.728-14.728s-14.728,6.595-14.728,14.728
	v7.585C326.518,342.718,333.112,349.313,341.247,349.313z"/>
</svg>